:FULLY-SPECIFIED
:FORCE-ALL-JOINTS-BE-3DOF
:DEGREES
883
root 3.85538 16.5378 30.5136 -10.9618 23.4589 -0.536275
lfemur -15.5952 19.7487 -19.1072
ltibia 40.3891 -0 0
lfoot -12.9821 -0.363094 -0.000805854
ltoes -1.30498 0 0
rfemur -80.8646 -24.2485 36.7954
rtibia 100.388 -0 0
rfoot 18.7928 26.1156 -0.0126127
rtoes -9.14411 0 0
lowerback 15.1691 -3.95206 -6.71227
upperback 5.03359 -6.2277 -2.42274
thorax -2.66989 -3.08435 2.25289
lowerneck -7.69802 -3.2046 1.74833
upperneck 4.57426 -4.78485 4.91999
head 2.9019 -2.1641 1.05534
lclavicle 3.5599e-14 -1.53138e-14 -1.99037e-30
lhumerus -32.9709 -40.3226 88.0621
lradius 60.741 -0 0
lwrist 19.8444 0 0
lhand 25.6146 11.7365 0.000469143
lfingers 7.12502 -0 0
lthumb 49.7231 33.0899 -0.00355654
rclavicle 3.5599e-14 -1.53138e-14 -1.99037e-30
rhumerus -49.2588 -29.6662 -46.6711
rradius 71.8202 -0 0
rwrist -23.3029 0 0
rhand -47.1353 -53.8092 0.153995
rfingers 7.12502 -0 0
rthumb -19.0988 -32.8913 -1.56987
884
root 3.83056 16.557 30.5819 -10.343 24.406 -1.14039
lfemur -16.5572 21.3817 -18.6266
ltibia 40.7057 -0 0
lfoot -12.9879 0.952778 -0.00178576
ltoes -1.24257 0 0
rfemur -79.3561 -25.5382 35.6902
rtibia 103.687 -0 0
rfoot 19.7748 25.3985 -0.0182038
rtoes -5.94771 0 0
lowerback 14.4099 -4.19817 -6.43032
upperback 4.7098 -6.46446 -2.17687
thorax -2.59119 -3.2022 2.34191
lowerneck -7.79063 -3.39108 1.6043
upperneck 4.92841 -5.04594 4.97824
head 3.05171 -2.28358 1.08364
lclavicle 1.02264e-14 -2.05558e-14 -2.17719e-30
lhumerus -33.4638 -41.2457 89.4853
lradius 60.2732 -0 0
lwrist 18.3966 0 0
lhand 26.5714 11.8165 0.000593882
lfingers 7.12502 -0 0
lthumb 50.5981 32.7051 -0.00356032
rclavicle 1.02264e-14 -2.05558e-14 -2.17719e-30
rhumerus -49.3124 -29.5755 -47.9453
rradius 74.1273 -0 0
rwrist -23.6823 0 0
rhand -49.2811 -61.4526 0.137383
rfingers 7.12502 -0 0
rthumb -21.3746 30.7472 -2.05275
885
root 3.80407 16.5687 30.6695 -9.57769 25.3839 358.391
lfemur -17.6457 23.0577 -18.3135
ltibia 41.0923 0 0
lfoot -13.1407 1.7204 0
ltoes -1.11867 0 0
rfemur -76.6751 -26.9284 33.7158
rtibia 106.616 0 0
rfoot 20.2929 24.0061 0
rtoes -3.70094 0 0
lowerback 13.5131 -4.41943 -6.2638
upperback 4.32647 -6.68327 -1.95983
thorax -2.48764 -3.31114 2.44704
lowerneck -7.84255 -3.64141 1.40903
upperneck 5.18316 -5.38128 5.04702
head 3.1648 -2.44375 1.12128
lclavicle -1.33186e-14 -2.22639e-14 0
lhumerus -34.4615 -42.1759 91.2542
lradius 60.1121 0 0
lwrist 17.0098 0 0
lhand 27.2604 11.8633 0
lfingers 7.12502 0 0
lthumb 51.228 32.4166 0
rclavicle -1.33186e-14 -2.22639e-14 0
rhumerus -49.1469 -28.7732 -50.1037
rradius 77.1232 0 0
rwrist -23.7741 0 0
rhand -50.1716 -66.2227 0
rfingers 7.12502 0 0
rthumb -22.7538 -985.099 0
886
root 3.82344 16.5865 30.7132 -9.23192 26.4832 -1.95632
lfemur -18.944 24.467 -18.7096
ltibia 41.9832 -0 0
lfoot -13.1141 1.91082 -0.0370038
ltoes -0.516174 0 0
rfemur -74.5436 -27.8807 32.2915
rtibia 109.08 -0 0
rfoot 20.714 22.7976 -0.0939798
rtoes -2.58612 0 0
lowerback 13.0583 -4.58289 -6.37995
upperback 4.10408 -6.89989 -1.76977
thorax -2.44051 -3.41207 2.69017
lowerneck -7.84582 -3.93985 1.19713
upperneck 5.29205 -5.77032 5.12261
head 3.22043 -2.63513 1.16336
lclavicle -2.59712e-14 -1.9236e-14 1.41548e-30
lhumerus -35.2572 -42.7141 92.4577
lradius 60.4011 -0 0
lwrist 16.0394 0 0
lhand 27.1998 11.6699 -0.02487
lfingers 7.12502 -0 0
lthumb 51.1817 32.3212 -0.000742059
rclavicle -2.59712e-14 -1.9236e-14 1.41548e-30
rhumerus -49.4197 -28.3225 -52.8848
rradius 80.3672 -0 0
rwrist -23.6384 0 0
rhand -49.9742 -66.6562 -0.116493
rfingers 7.12502 -0 0
rthumb -22.2752 132.396 0.993074
887
root 3.87754 16.6182 30.7452 -9.02913 28.1222 -2.4357
lfemur -20.9317 26.3145 -19.6816
ltibia 43.5214 -0 0
lfoot -12.9271 2.03356 -0.11365
ltoes 0.607816 -0 0
rfemur -72.1403 -28.9623 30.8107
rtibia 112.483 -0 0
rfoot 21.4099 21.3649 -0.28651
rtoes -1.31465 0 0
lowerback 12.6978 -4.79408 -6.66679
upperback 3.89214 -7.21466 -1.5004
thorax -2.41396 -3.55538 3.11247
lowerneck -7.83534 -4.37514 0.899731
upperneck 5.39869 -6.3358 5.2302
head 3.2801 -2.91462 1.22283
lclavicle -3.95124e-14 -1.31802e-14 1.64957e-30
lhumerus -36.1357 -43.2593 93.7685
lradius 60.9707 -0 0
lwrist 14.8503 0 0
lhand 26.7795 11.2618 -0.0762427
lfingers 7.12502 -0 0
lthumb 50.8152 32.2536 -0.00496461
rclavicle -3.95124e-14 -1.31802e-14 1.64957e-30
rhumerus -50.1251 -28.1393 -56.9509
rradius 84.9468 -0 0
rwrist -23.405 0 0
rhand -49.4816 -65.8539 -0.286751
rfingers 7.12502 -0 0
rthumb -21.46 172.691 0.902528
888
root 3.91338 16.6389 30.7934 -8.67952 29.5077 -2.77153
lfemur -22.7193 27.9292 -20.5425
ltibia 44.7737 -0 0
lfoot -12.8994 1.89405 -0.168929
ltoes 1.50429 -0 0
rfemur -69.161 -29.918 28.7981
rtibia 115.216 -0 0
rfoot 21.724 19.6784 -0.409845
rtoes -0.634204 0 0
lowerback 12.2177 -4.97334 -6.93029
upperback 3.6418 -7.47004 -1.28516
thorax -2.36465 -3.67306 3.45388
lowerneck -7.807 -4.77617 0.616762
upperneck 5.4516 -6.85311 5.32775
head 3.31758 -3.17205 1.27857
lclavicle -5.16224e-14 -6.73006e-15 4.5e-31
lhumerus -37.2673 -43.7796 95.236
lradius 61.5656 -0 0
lwrist 13.8034 0 0
lhand 26.3948 10.9436 -0.117239
lfingers 7.12502 -0 0
lthumb 50.4765 32.2241 -0.00896586
rclavicle -5.16224e-14 -6.73006e-15 4.5e-31
rhumerus -50.5707 -27.4745 -60.8249
rradius 89.2308 -0 0
rwrist -23.0651 0 0
rhand -48.4763 -64.122 -0.385907
rfingers 7.12502 -0 0
rthumb -20.7375 -148.1 0.439719
889
root 3.87793 16.6237 30.8861 -7.86919 29.8455 -2.67492
lfemur -23.3125 28.6977 -20.4818
ltibia 44.8071 -0 0
lfoot -13.351 1.29814 -0.144462
ltoes 1.42419 -0 0
rfemur -65.3184 -30.4246 25.8033
rtibia 115.672 -0 0
rfoot 20.9905 17.7118 -0.33709
rtoes -1.29247 0 0
lowerback 11.402 -5.03935 -6.97653
upperback 3.30647 -7.50933 -1.25882
thorax -2.24757 -3.69705 3.45424
lowerneck -7.75962 -4.97185 0.448482
upperneck 5.40052 -7.09742 5.37432
head 3.30701 -3.29715 1.30981
lclavicle -5.99813e-14 -2.519e-15 -8.2722e-31
lhumerus -38.8229 -44.2339 96.9105
lradius 61.9304 -0 0
lwrist 13.2596 0 0
lhand 26.44 11.019 -0.103958
lfingers 7.12502 -0 0
lthumb 50.5134 32.2429 -0.00844667
rclavicle -5.99813e-14 -2.519e-15 -8.2722e-31
rhumerus -50.1376 -25.4885 -62.9868
rradius 91.5874 -0 0
rwrist -22.6098 0 0
rhand -46.7313 -61.762 -0.314888
rfingers 7.12502 -0 0
rthumb -19.538 -113.833 0.164427
890
root 3.71818 16.5479 31.0514 -6.32248 28.3277 358.093
lfemur -21.7226 27.984 -18.6884
ltibia 42.6887 0 0
lfoot -14.604 0.0493379 0
ltoes -0.381373 0 0
rfemur -60.4049 -30.057 21.4621
rtibia 112.241 0 0
rfoot 18.5331 15.4272 0
rtoes -4.03696 0 0
lowerback 10.0357 -4.9031 -6.61491
upperback 2.83873 -7.178 -1.55844
thorax -2.0187 -3.55739 2.85392
lowerneck -7.69289 -4.79134 0.495652
upperneck 5.19557 -6.84408 5.32792
head 3.2226 -3.17971 1.29558
lclavicle -6.22693e-14 -3.18055e-15 0
lhumerus -40.9697 -44.5703 98.84
lradius 61.8099 0 0
lwrist 13.5798 0 0
lhand 27.3106 11.7927 0
lfingers 7.12502 0 0
lthumb 51.2736 32.3201 0
rclavicle -6.22693e-14 -3.18055e-15 0
rhumerus -48.1161 -21.3701 -61.8639
rradius 90.3854 0 0
rwrist -22.0301 0 0
rhand -44.006 -59.0633 0
rfingers 7.12502 0 0
rthumb -16.827 -808.354 0
891
root 3.69237 16.5356 31.0739 -6.11248 28.0301 -1.78294
lfemur -21.3999 27.7929 -18.3785
ltibia 42.3082 -0 0
lfoot -14.7929 -0.127585 0.0223799
ltoes -0.697057 0 0
rfemur -59.83 -29.9464 20.924
rtibia 111.595 -0 0
rfoot 18.1523 15.1682 0.0506935
rtoes -4.47403 0 0
lowerback 9.85381 -4.87332 -6.54676
upperback 2.78041 -7.11639 -1.61425
thorax -1.98704 -3.53062 2.74643
lowerneck -7.68453 -4.74413 0.516389
upperneck 5.16321 -6.78011 5.31592
head 3.20844 -3.14913 1.29072
lclavicle -6.20542e-14 -3.65015e-15 2.86768e-31
lhumerus -41.2332 -44.5949 99.0555
lradius 61.7596 -0 0
lwrist 13.6778 0 0
lhand 27.4645 11.9251 0.0164528
lfingers 7.12502 -0 0
lthumb 51.4081 32.331 0.00130757
rclavicle -6.20542e-14 -3.65015e-15 2.86768e-31
rhumerus -47.7785 -20.7921 -61.4955
rradius 89.9932 -0 0
rwrist -21.9638 0 0
rhand -43.6525 -58.7695 0.0495199
rfingers 7.12502 -0 0
rthumb -16.4263 -86.3935 -0.0201868
892
root 3.66393 16.522 31.0981 -5.88634 27.6939 -1.64572
lfemur -21.0373 27.5687 -18.037
ltibia 41.8834 -0 0
lfoot -14.9995 -0.322653 0.0467927
ltoes -1.04763 0 0
rfemur -59.2246 -29.8141 20.3512
rtibia 110.867 -0 0
rfoot 17.7347 14.8944 0.105795
rtoes -4.95997 0 0
lowerback 9.65796 -4.83943 -6.47052
upperback 2.71805 -7.0475 -1.67757
thorax -1.95298 -3.50058 2.62573
lowerneck -7.67525 -4.68953 0.540056
upperneck 5.12722 -6.70619 5.30196
head 3.19255 -3.11375 1.28515
lclavicle -6.17223e-14 -4.2436e-15 6.37397e-31
lhumerus -41.5138 -44.6163 99.279
lradius 61.7006 -0 0
lwrist 13.7931 0 0
lhand 27.6369 12.072 0.0344209
lfingers 7.12502 -0 0
lthumb 51.5586 32.3415 0.00259353
rclavicle -6.17223e-14 -4.2436e-15 6.37397e-31
rhumerus -47.4072 -20.161 -61.0675
rradius 89.5378 -0 0
rwrist -21.8966 0 0
rhand -43.2663 -58.4554 0.104332
rfingers 7.12502 -0 0
rthumb -15.999 -84.5508 -0.0420525
893
root 3.63294 16.5073 31.1241 -5.64533 27.3206 -1.49653
lfemur -20.6371 27.3122 -17.6661
ltibia 41.4162 -0 0
lfoot -15.223 -0.535065 0.0729381
ltoes -1.43166 0 0
rfemur -58.591 -29.66 19.746
rtibia 110.059 -0 0
rfoot 17.282 14.6065 0.16462
rtoes -5.49268 0 0
lowerback 9.44878 -4.8015 -6.38656
upperback 2.65182 -6.97167 -1.74809
thorax -1.91664 -3.46739 2.49239
lowerneck -7.66506 -4.62785 0.566565
upperneck 5.08775 -6.62274 5.28612
head 3.175 -3.07375 1.2789
lclavicle -6.12781e-14 -4.95496e-15 1.04585e-30
lhumerus -41.8106 -44.6346 99.5102
lradius 61.6331 -0 0
lwrist 13.9251 0 0
lhand 27.8268 12.2326 0.0536885
lfingers 7.12502 -0 0
lthumb 51.7244 32.3515 0.00385853
rclavicle -6.12781e-14 -4.95496e-15 1.04585e-30
rhumerus -47.0019 -19.4804 -60.5816
rradius 89.0216 -0 0
rwrist -21.8283 0 0
rhand -42.8487 -58.1219 0.163649
rfingers 7.12502 -0 0
rthumb -15.5467 -82.8225 -0.0660489
894
root 3.59954 16.4915 31.1517 -5.39071 26.9115 -1.33654
lfemur -20.2021 27.0242 -17.268
ltibia 40.9083 -0 0
lfoot -15.4626 -0.76402 0.100512
ltoes -1.84769 0 0
rfemur -57.9315 -29.484 19.1109
rtibia 109.175 -0 0
rfoot 16.7954 14.305 0.22648
rtoes -6.07004 0 0
lowerback 9.22698 -4.75962 -6.29526
upperback 2.58189 -6.8892 -1.82549
thorax -1.87816 -3.43114 2.347
lowerneck -7.65402 -4.55939 0.595828
upperneck 5.04494 -6.53017 5.26845
head 3.15586 -3.02934 1.27198
lclavicle -6.07263e-14 -5.77824e-15 1.50559e-30
lhumerus -42.1229 -44.6498 99.7487
lradius 61.5576 -0 0
lwrist 14.0731 0 0
lhand 28.0336 12.4065 0.0740324
lfingers 7.12502 -0 0
lthumb 51.9047 32.3611 0.00510346
rclavicle -6.07263e-14 -5.77824e-15 1.50559e-30
rhumerus -46.5627 -18.7539 -60.0391
rradius 88.447 -0 0
rwrist -21.7591 0 0
rhand -42.4013 -57.7697 0.22668
rfingers 7.12502 -0 0
rthumb -15.0705 -81.2052 -0.0924374
895
root 3.56383 16.4745 31.1809 -5.12371 26.4683 -1.16694
lfemur -19.7346 26.7052 -16.8451
ltibia 40.3617 -0 0
lfoot -15.7178 -1.00872 0.129208
ltoes -2.29429 0 0
rfemur -57.2483 -29.286 18.4485
rtibia 108.219 -0 0
rfoot 16.2764 13.9906 0.290692
rtoes -6.68995 0 0
lowerback 8.99314 -4.71386 -6.197
upperback 2.50842 -6.80041 -1.90947
thorax -1.83765 -3.39196 2.19014
lowerneck -7.64216 -4.48446 0.62776
upperneck 4.99895 -6.42891 5.24903
head 3.1352 -2.98073 1.26442
lclavicle -6.00712e-14 -6.70751e-15 2.00966e-30
lhumerus -42.4497 -44.6618 99.994
lradius 61.4743 -0 0
lwrist 14.2364 0 0
lhand 28.2563 12.5931 0.0952313
lfingers 7.12502 -0 0
lthumb 52.0989 32.3705 0.0063293
rclavicle -6.00712e-14 -6.70751e-15 2.00966e-30
rhumerus -46.0892 -17.9849 -59.4417
rradius 87.8164 -0 0
rwrist -21.6888 0 0
rhand -41.9256 -57.3997 0.292638
rfingers 7.12502 -0 0
rthumb -14.5718 -79.6955 -0.121312
